<?xml version="1.0" encoding="utf-8"?>
<!-- Generator: Adobe Illustrator 24.0.1, SVG Export Plug-In . SVG Version: 6.00 Build 0)  -->
<svg version="1.1" id="Layer_2_1_" xmlns="http://www.w3.org/2000/svg" xmlns:xlink="http://www.w3.org/1999/xlink" x="0px" y="0px"
	 viewBox="0 0 134 38" style="enable-background:new 0 0 134 38;" xml:space="preserve">
<style type="text/css">
	.st0{fill:#FFFFFF;}
	.st1{fill:#231F20;}
	.st2{fill:#B42025;}
</style>
<title>logo</title>
<g>
	<g>
		<path class="st0" d="M32,37.2c-0.3,0-1,0-1.6-0.6c-0.3-0.4-0.5-0.9-0.5-1.5c0-0.3,0.1-1.2,1.3-1.7c0.4-0.2,0.9-0.3,1.5-0.4
			c0.5-0.1,1.1-0.2,1.8-0.3c0.6-0.1,1.2-0.1,1.7-0.2c0.2,0,0.4,0,0.6-0.1c-0.4,0-0.9-0.1-1.3-0.1c-0.6-0.1-1.2-0.1-1.7-0.3
			c-1.4-0.3-1.6-1.3-1.6-1.7c0-0.5,0.2-0.8,0.3-1.1c0.4-0.6,1.2-0.7,1.6-0.8c0.5-0.1,1-0.1,1.6-0.2c0.6,0,1.1-0.1,1.6-0.1
			c0-0.2,0-1,0-1.2c-0.5,0-1,0-1.5,0.1C35,27.4,34,27.4,33,27.4h-0.3l-0.3-0.2c-0.2-0.1-0.3-0.2-0.5-0.4c-0.3,0.5-0.6,1.1-0.8,1.6
			c-0.4,0.8-0.8,1.4-1.2,1.9c-0.4,0.5-1,1.1-1.9,1.1c-0.7,0-1.3-0.3-1.6-0.9c-0.2-0.4-0.3-0.8-0.3-1.2c0-0.4,0.1-0.9,0.3-1.7
			c0.2-0.7,0.4-1.4,0.7-2.3c0.3-0.8,0.6-1.7,0.9-2.7c0.3-0.9,0.7-1.8,1-2.7c0.3-0.8,0.6-1.6,0.9-2.2c0.3-0.7,0.5-1.2,0.7-1.5
			c0.1-0.2,0.2-0.4,0.4-0.6c0.2-0.2,0.3-0.4,0.5-0.6c0.2-0.2,0.4-0.3,0.7-0.5c0.3-0.2,0.7-0.3,1.1-0.3c0.5,0,0.9,0.1,1.2,0.3
			c0.3,0.2,0.6,0.4,0.8,0.7c0.1,0.1,0.1,0.2,0.2,0.3c0.9-0.4,1.7-0.6,2.6-0.8c1-0.2,1.9-0.3,2.8-0.3c0.3,0,0.6,0,0.9,0
			c0.3,0,0.7,0.1,1,0.2c0.6,0.2,1.3,0.7,2,1.3c0.6,0.6,1.2,1.3,1.9,2.1c0.6,0.8,1.2,1.7,1.8,2.6c0.6,0.9,1.1,1.8,1.5,2.8
			c0.5,0.9,0.8,1.8,1.1,2.6c0.3,0.9,0.5,1.7,0.5,2.3c0,1.4-0.7,2-1.2,2.3c-0.6,0.3-1.2,0.5-2,0.5c-0.6,0-1.1-0.3-1.5-0.8
			c-0.2-0.3-0.4-0.6-0.5-1c-0.1-0.3-0.2-0.6-0.3-1c0-0.2-0.1-0.4-0.1-0.6c-0.1-0.5-0.4-1.1-0.7-2c-0.1-0.1-0.1-0.3-0.2-0.4
			c-0.2,0.4-0.6,0.8-1.1,1c-0.3,0.1-0.7,0.2-1.1,0.3c-0.2,0-0.5,0.1-0.7,0.1v0.5c0,0.2,0,0.4,0,0.6c0,0.1,0,0.2,0,0.3
			c0.1,0,0.3,0,0.4,0c0.5,0,0.9,0.2,1.3,0.4c0.4,0.2,1,0.7,1,1.9c0,0.7-0.2,1.2-0.5,1.5c-0.1,0.1-0.2,0.1-0.2,0.2c0.2,0,0.5,0,0.8,0
			c0.4,0,0.7,0.1,1,0.2c0.4,0.1,0.8,0.4,1.1,0.7c0.2,0.3,0.5,0.7,0.5,1.5c0,0.5-0.1,0.9-0.3,1.3c-0.2,0.3-0.7,0.9-1.7,0.9
			c-1.4,0-2.7,0-4.1-0.1c-1.3-0.1-2.7-0.1-4-0.1c-0.7,0-1.4,0-2.1,0c-0.7,0-1.3,0.1-1.9,0.2l-0.6,0.1C32.5,37.2,32.3,37.2,32,37.2z
			 M35,20.1c-0.1,0.3-0.3,0.7-0.6,1.3c-0.3,0.6-0.6,1.3-0.9,2.1c0.5-0.1,1-0.1,1.7-0.2c0.7-0.1,1.4-0.1,2.3-0.1l2.3-0.1
			c0.7,0,1.4-0.1,2-0.1c0.6,0,1,0,1.2,0c0.3,0,0.6,0,0.9,0.1c-0.4-0.8-0.8-1.5-1.2-2.2c-0.4-0.8-0.8-1.3-1.1-1.7
			c-0.2-0.2-0.4-0.4-0.6-0.5c-0.1-0.1-0.3-0.1-0.6-0.1c-0.3,0-0.6,0-1,0.1c-0.4,0.1-0.9,0.2-1.3,0.3c-0.5,0.1-0.9,0.3-1.4,0.4
			c-0.4,0.1-0.8,0.3-1.2,0.4l-0.4,0.1C35.1,19.9,35.1,20,35,20.1z"/>
		<path class="st1" d="M27.3,29.3c0-0.3,0.1-0.8,0.2-1.4c0.2-0.7,0.4-1.4,0.6-2.2c0.3-0.8,0.6-1.7,0.9-2.6c0.3-0.9,0.6-1.8,1-2.6
			c0.3-0.8,0.6-1.6,0.9-2.2c0.3-0.6,0.5-1.1,0.7-1.4c0.1-0.1,0.2-0.3,0.3-0.4c0.1-0.2,0.3-0.3,0.4-0.4c0.1-0.1,0.3-0.2,0.5-0.3
			c0.2-0.1,0.3-0.1,0.5-0.1c0.2,0,0.4,0.1,0.6,0.2c0.2,0.1,0.3,0.2,0.4,0.4c0.1,0.2,0.2,0.3,0.3,0.5c0.1,0.2,0.2,0.4,0.3,0.6
			c0.2,0,0.4-0.1,0.6-0.1c0.2-0.1,0.3-0.1,0.5-0.2c0.8-0.3,1.6-0.6,2.4-0.8c0.9-0.2,1.7-0.3,2.5-0.3c0.3,0,0.5,0,0.8,0
			c0.3,0,0.5,0.1,0.8,0.2c0.5,0.2,1,0.5,1.6,1.1c0.6,0.5,1.2,1.2,1.8,2c0.6,0.8,1.2,1.6,1.7,2.5c0.5,0.9,1,1.8,1.5,2.7
			c0.4,0.9,0.8,1.7,1,2.5c0.3,0.8,0.4,1.4,0.4,1.9c0,0.6-0.2,1-0.6,1.3c-0.4,0.2-0.8,0.3-1.4,0.3c-0.2,0-0.4-0.1-0.5-0.3
			c-0.1-0.2-0.3-0.4-0.4-0.7c-0.1-0.3-0.2-0.5-0.2-0.8c-0.1-0.3-0.1-0.5-0.1-0.6c-0.1-0.5-0.4-1.3-0.8-2.1c-0.4-0.9-0.8-1.8-1.2-2.7
			c-0.5-0.9-0.9-1.8-1.4-2.6c-0.5-0.8-0.9-1.4-1.3-1.9c-0.3-0.3-0.6-0.6-1-0.8c-0.3-0.2-0.7-0.3-1.2-0.3c-0.3,0-0.7,0-1.2,0.1
			c-0.4,0.1-0.9,0.2-1.4,0.3c-0.5,0.1-0.9,0.3-1.4,0.4c-0.5,0.1-0.8,0.3-1.2,0.4c-0.2,0.1-0.4,0.1-0.5,0.2c-0.1,0-0.2,0.1-0.3,0.2
			c-0.1,0.1-0.2,0.2-0.2,0.3c-0.1,0.1-0.1,0.3-0.2,0.5c-0.1,0.3-0.3,0.7-0.6,1.3c-0.3,0.6-0.6,1.3-0.9,2.1c-0.4,0.8-0.7,1.6-1.1,2.4
			c-0.4,0.8-0.8,1.6-1.2,2.3c-0.4,0.7-0.8,1.3-1.1,1.7c-0.4,0.4-0.7,0.7-0.9,0.7c-0.3,0-0.4-0.1-0.6-0.3
			C27.4,29.7,27.3,29.5,27.3,29.3z M32.7,25.5c0-0.2,0.1-0.4,0.2-0.6c0.1-0.1,0.3-0.1,0.8-0.2c0.5-0.1,1-0.1,1.7-0.2
			c0.7-0.1,1.4-0.1,2.2-0.1c0.8,0,1.6-0.1,2.3-0.1c0.7,0,1.4-0.1,2-0.1s1,0,1.2,0c0.3,0,0.6,0.1,0.7,0.2c0.2,0.1,0.2,0.3,0.2,0.7
			c0,0.2-0.1,0.3-0.4,0.4c-0.3,0.1-0.6,0.2-0.9,0.2c-0.3,0.1-0.7,0.1-1,0.1c-0.3,0-0.6,0-0.7,0.1v1.1c0,0.1,0,0.3,0,0.5
			c0,0.2,0,0.4,0,0.7s0,0.5,0,0.7c0,0.2,0.1,0.4,0.1,0.5c0.1,0.2,0.2,0.3,0.5,0.3s0.6,0,0.9,0c0.3,0,0.6,0.1,0.8,0.2
			c0.3,0.1,0.4,0.4,0.4,0.9c0,0.3-0.1,0.5-0.2,0.7c-0.1,0.1-0.4,0.2-0.7,0.2c-0.3,0-0.5,0-0.8-0.1c-0.3,0-0.5-0.1-0.8-0.1
			c-0.1,0.5-0.2,1.1-0.2,1.6c0,0.2,0.1,0.4,0.4,0.5c0.3,0.1,0.6,0.1,0.9,0.2c0.4,0,0.7,0,1,0c0.3,0,0.6,0,0.8,0c0.2,0,0.4,0,0.7,0
			c0.3,0,0.5,0.1,0.7,0.1c0.2,0.1,0.4,0.2,0.5,0.4c0.1,0.2,0.2,0.4,0.2,0.6c0,0.3,0,0.5-0.1,0.7c-0.1,0.2-0.3,0.3-0.6,0.3
			c-1.3,0-2.7,0-4-0.1c-1.3-0.1-2.7-0.1-4-0.1c-0.7,0-1.4,0-2.1,0c-0.7,0-1.4,0.1-2.1,0.2c-0.2,0-0.4,0.1-0.6,0.1
			C32.4,36,32.2,36,32,36c-0.3,0-0.6-0.1-0.7-0.2c-0.1-0.1-0.2-0.4-0.2-0.7c0-0.2,0.2-0.4,0.5-0.6s0.8-0.3,1.3-0.4
			c0.5-0.1,1.1-0.2,1.7-0.2c0.6-0.1,1.2-0.1,1.7-0.2c0.5,0,1-0.1,1.3-0.1c0.4-0.1,0.6-0.1,0.6-0.2c0,0,0-0.1,0.1-0.3
			c0-0.2,0.1-0.4,0.1-0.6c0-0.2,0-0.4,0.1-0.6c0-0.2,0-0.3,0-0.4c-0.2-0.1-0.6-0.1-1.2-0.1c-0.6,0-1.1-0.1-1.7-0.1
			c-0.6-0.1-1.1-0.1-1.6-0.2c-0.4-0.1-0.7-0.3-0.7-0.5c0-0.2,0-0.3,0.1-0.4c0.1-0.1,0.3-0.2,0.8-0.3c0.5-0.1,1-0.1,1.6-0.2
			c0.6,0,1.1-0.1,1.6-0.1c0.5,0,0.9,0,1,0c0-0.6,0-1.2,0.1-1.8c0-0.6,0-1.2,0-1.8c-0.9,0-1.9,0-2.8,0.1c-0.9,0.1-1.9,0.1-2.8,0.1
			c-0.1-0.1-0.2-0.2-0.2-0.3C32.8,25.8,32.7,25.7,32.7,25.5z"/>
		<path class="st0" d="M70.3,37c-0.3,0-0.6,0-1.1-0.1c-0.5-0.1-1-0.2-1.5-0.3c-0.6-0.1-1.1-0.3-1.7-0.4c-0.6-0.2-1.2-0.4-1.7-0.6
			c-0.6-0.2-1-0.5-1.4-0.8c-0.8-0.6-0.9-1.2-0.9-1.6c0-0.6,0.4-1.2,0.9-1.4c-0.3-0.1-0.5-0.3-0.8-0.5c0,0,0,0,0,0
			c-0.2,0.1-0.4,0.2-0.7,0.3c-0.5,0.2-1,0.4-1.5,0.6c-0.5,0.2-1.1,0.4-1.6,0.6c-0.5,0.2-1,0.3-1.4,0.4c-0.5,0.1-0.8,0.2-1.1,0.2
			c-0.4,0-0.8-0.1-1.1-0.4c-0.4-0.3-0.7-0.8-0.7-1.4c0-0.4,0.1-1,0.8-1.5c0.3-0.2,0.6-0.5,1-0.7c0.3-0.2,0.6-0.3,0.9-0.4
			c0,0,0-1.2,0-1.3C56,27.9,55.5,28,54.9,28c-0.4,0-0.8-0.1-1.1-0.4c-0.4-0.3-0.7-0.8-0.7-1.3c0-0.4,0.2-1.1,1.2-1.5
			c0.3-0.1,0.7-0.3,1.2-0.4l1.1-0.3c0-0.3,0.1-0.7,0.1-1.1c0-0.4,0-0.7,0.1-1c-0.5,0.1-1.1,0.2-1.6,0.2c-0.5,0-0.9-0.2-1.3-0.4
			c-0.3-0.2-0.5-0.6-0.7-0.9l-0.1-0.2v-0.2c0-0.4,0.1-1,1-1.6c0.4-0.2,0.8-0.4,1.3-0.5c0.5-0.1,1-0.2,1.5-0.3c0.5-0.1,1-0.2,1.5-0.2
			c0.5-0.1,1-0.1,1.4-0.1c0.4,0,0.7,0,0.9,0c0.4,0,0.8,0.1,1.2,0.2c0.6,0.2,1.1,0.6,1.3,1.2c0.2-0.1,0.3-0.1,0.5-0.2
			c0.4-0.1,0.9-0.3,1.5-0.4c0.5-0.1,1-0.2,1.5-0.3c0.4-0.1,0.7-0.1,1-0.2c0-0.3,0-0.5,0-0.8c0-0.4,0.1-0.8,0.3-1.1
			c0.2-0.4,0.4-0.8,0.8-1.1c0.4-0.3,0.9-0.5,1.5-0.5c0.5,0,0.9,0.1,1.2,0.3c0.1-0.2,0.3-0.4,0.5-0.5c0.2-0.2,0.5-0.3,0.8-0.4
			c0.2-0.1,0.5-0.1,0.7-0.2c0.3,0,0.5-0.1,0.6-0.1c0.3,0,0.6,0,1,0.1c0.4,0.1,0.8,0.2,1.1,0.4c0.3,0.2,0.6,0.5,0.8,0.8
			c0.3,0.4,0.4,0.9,0.4,1.4c0,0.4-0.1,0.7-0.3,1.1c-0.1,0.1-0.1,0.2-0.2,0.2c0.3,0.3,0.5,0.8,0.5,1.4c0,0.7-0.3,1.3-0.9,1.6
			c-0.3,0.2-0.7,0.3-1.2,0.4c-0.3,0-0.7,0-1.1,0c-0.3,0-0.5,0-0.7,0.1c0,0.5,0,1,0,1.4c0,0,0.1-0.1,0.1-0.1c0.3-0.3,0.7-0.6,1.3-0.6
			c0.4,0,0.7,0.1,1,0.2c0.7,0.3,1,0.9,1,1.6c0,0.5-0.3,0.9-0.5,1.2c-0.2,0.3-0.4,0.5-0.6,0.8c-0.2,0.2-0.3,0.4-0.5,0.6
			c0.1,0.1,0.1,0.1,0.2,0.2c0.4,0.4,0.9,0.7,1.3,1.1c0.5,0.4,0.8,0.9,1.2,1.4c0.4,0.6,0.6,1.3,0.6,2.1c0,0.7-0.3,1.4-0.8,1.8
			c-0.5,0.4-1.1,0.6-1.7,0.6c-0.5,0-1-0.2-1.4-0.5l-0.1-0.1L74.4,33c0,0-0.2-0.2-0.4-0.5c-0.1-0.2-0.3-0.5-0.5-0.8c0,0,0,0,0,0
			c0,0.6-0.1,1.1-0.1,1.6c0,0.5-0.1,1-0.2,1.3c-0.1,0.5-0.2,0.9-0.4,1.1C72.2,36.6,71.4,37,70.3,37z M64.3,31.6
			c0.8,0,1.6,0.1,2.4,0.3c0.4,0.1,0.8,0.1,1.1,0.2c0-0.6,0.1-1.2,0.1-1.8c0-0.3,0-0.7,0-1c0,0-0.1,0.1-0.1,0.1
			c-0.3,0.3-0.7,0.5-1.1,0.8c-0.4,0.3-0.8,0.5-1.2,0.8c-0.4,0.2-0.7,0.4-1,0.6C64.4,31.5,64.3,31.6,64.3,31.6z M61.9,27.4
			c0.4,0,0.8,0.2,1.1,0.5c0.2-0.2,0.5-0.4,0.8-0.6c0.1-0.1,0.3-0.2,0.4-0.3c-0.4-0.2-0.8-0.4-1.1-0.7c-0.2-0.1-0.3-0.3-0.4-0.4
			c-0.2,0.2-0.4,0.4-0.6,0.4l-0.1,0.1C61.9,26.5,61.9,27.4,61.9,27.4z M64.4,22.5c0.4,0,0.8,0.1,1.3,0.2c0.5,0.1,1,0.3,1.4,0.6
			c0.3,0.1,0.5,0.3,0.7,0.4v0c0-0.5,0-1,0-1.4c0-0.2,0-0.4,0-0.5c-0.1,0-0.2,0-0.3,0c-0.5,0.1-0.9,0.1-1.4,0.2
			c-0.5,0.1-1,0.2-1.5,0.2c-0.5,0.1-1.1,0.1-1.6,0.1c-0.4,0-0.7-0.1-1-0.2c-0.1,0-0.2-0.1-0.3-0.2c0,0.1,0,0.2,0,0.4
			c0,0.3,0,0.6,0,0.9c0.2,0.1,0.4,0.2,0.6,0.4c0,0,0,0,0,0c0.1-0.1,0.2-0.3,0.3-0.4C63.3,22.7,63.8,22.5,64.4,22.5z"/>
		<path class="st1" d="M54.3,20.4c0-0.2,0.1-0.4,0.4-0.5c0.3-0.2,0.6-0.3,1-0.4c0.4-0.1,0.9-0.2,1.4-0.3c0.5-0.1,1-0.2,1.5-0.2
			c0.5-0.1,0.9-0.1,1.3-0.1c0.4,0,0.6,0,0.8,0c0.3,0,0.6,0,0.8,0.1s0.4,0.3,0.4,0.6c0,0.2-0.1,0.4-0.2,0.5c-0.1,0.1-0.3,0.2-0.5,0.2
			c-0.2,0.1-0.3,0.1-0.5,0.2c-0.1,0.1-0.2,0.1-0.2,0.2c0,0.6,0,1.2,0.1,1.8c0,0.6,0.1,1.2,0.1,1.8c0.1,0,0.2,0,0.4,0
			c0.1,0,0.2,0,0.4,0s0.2,0.1,0.3,0.1c0.1,0.1,0.1,0.2,0.1,0.3c0,0.3-0.1,0.4-0.2,0.5c-0.1,0-0.2,0.1-0.4,0.1
			c-0.1,0.1-0.3,0.2-0.4,0.3c-0.1,0.2-0.2,0.5-0.2,0.9v2.1c0.3-0.1,0.7-0.1,1.1-0.1c0.2,0,0.3,0.1,0.4,0.2c0.1,0.2,0.1,0.3,0.1,0.5
			c0,0.1-0.1,0.3-0.4,0.5c-0.3,0.2-0.6,0.4-1.1,0.6c-0.4,0.2-0.9,0.4-1.4,0.6c-0.5,0.2-1,0.4-1.5,0.6c-0.5,0.2-0.9,0.3-1.3,0.4
			c-0.4,0.1-0.7,0.1-0.8,0.1s-0.3,0-0.4-0.1c-0.1-0.1-0.2-0.2-0.2-0.4c0-0.2,0.1-0.4,0.4-0.6c0.2-0.2,0.5-0.4,0.8-0.5
			c0.3-0.2,0.6-0.3,0.9-0.4c0.3-0.1,0.5-0.2,0.7-0.3c0-0.6,0-1.2-0.1-1.7c0-0.6-0.1-1.2-0.2-1.7c-0.5,0-0.9,0.1-1.4,0.2
			c-0.4,0.2-0.9,0.2-1.4,0.2c-0.1,0-0.3,0-0.4-0.1c-0.1-0.1-0.2-0.2-0.2-0.4c0-0.1,0.2-0.3,0.5-0.4c0.3-0.1,0.7-0.2,1.1-0.3
			c0.4-0.1,0.8-0.2,1.1-0.3s0.6-0.2,0.7-0.3c0.1-0.1,0.1-0.3,0.1-0.6c0-0.4,0.1-0.8,0.1-1.2c0-0.4,0-0.9,0.1-1.3c0-0.4,0-0.7,0-0.8
			c0-0.1,0-0.2-0.1-0.4l-0.2,0c-0.5,0-0.9,0.1-1.3,0.2C56,20.9,55.6,21,55.1,21c-0.2,0-0.4-0.1-0.5-0.2
			C54.5,20.7,54.3,20.6,54.3,20.4z M68.8,18.9l0-0.9c0-0.2,0-0.5,0-0.8c0-0.3,0.1-0.5,0.2-0.8c0.1-0.2,0.2-0.4,0.4-0.6
			c0.2-0.2,0.4-0.2,0.7-0.2c0.4,0,0.6,0.1,0.8,0.3c0.2,0.2,0.4,0.5,0.5,0.8c0.1,0.3,0.2,0.6,0.2,0.9c0,0.3,0.1,0.6,0.1,0.9
			c0.5-0.1,1-0.1,1.5-0.2c0.5-0.1,1-0.1,1.5-0.1c0.3,0,0.6,0,0.8,0.1c0.2,0.1,0.4,0.3,0.4,0.7c0,0.3-0.1,0.4-0.3,0.5
			c-0.2,0.1-0.4,0.2-0.7,0.2c-0.3,0-0.6,0-0.9,0s-0.6,0-0.9,0.1c-0.3,0-0.5,0.1-0.7,0.3c-0.2,0.1-0.3,0.4-0.3,0.7c0,0.7,0,1.5,0,2.2
			c0,0.7,0.1,1.4,0.2,2.2c0.1-0.1,0.2-0.3,0.5-0.5c0.2-0.2,0.5-0.5,0.7-0.7c0.3-0.2,0.5-0.5,0.7-0.6c0.2-0.2,0.4-0.3,0.5-0.3
			c0.2,0,0.4,0,0.6,0.1c0.2,0.1,0.3,0.2,0.3,0.5c0,0.1-0.1,0.3-0.3,0.5c-0.2,0.2-0.4,0.5-0.6,0.8c-0.2,0.3-0.4,0.6-0.7,0.8
			c-0.2,0.3-0.4,0.5-0.4,0.6v0c0.3,0.4,0.6,0.8,1,1.1c0.4,0.3,0.8,0.7,1.2,1c0.4,0.4,0.7,0.7,1,1.2c0.3,0.4,0.4,0.9,0.4,1.4
			c0,0.4-0.1,0.7-0.4,0.9c-0.3,0.2-0.6,0.3-0.9,0.3c-0.3,0-0.5-0.1-0.8-0.2c0,0-0.1-0.1-0.2-0.3c-0.1-0.2-0.3-0.4-0.5-0.7
			c-0.2-0.3-0.4-0.6-0.6-1c-0.2-0.3-0.4-0.7-0.6-1c-0.2-0.3-0.4-0.6-0.5-0.8c-0.2-0.2-0.3-0.4-0.3-0.5c0,0.2,0,0.5,0,0.9
			c0,0.4,0,0.9-0.1,1.4c0,0.5-0.1,1-0.1,1.6s-0.1,1.1-0.1,1.5c0,0.5-0.1,0.9-0.2,1.2c-0.1,0.4-0.1,0.6-0.2,0.7
			c-0.3,0.5-0.8,0.8-1.5,0.8c-0.2,0-0.5,0-0.9-0.1c-0.4-0.1-0.9-0.2-1.4-0.3c-0.5-0.1-1.1-0.3-1.6-0.4c-0.6-0.2-1.1-0.3-1.6-0.5
			c-0.5-0.2-0.8-0.4-1.1-0.6c-0.3-0.2-0.4-0.4-0.4-0.6c0-0.2,0.1-0.3,0.3-0.3c0.2,0,0.3-0.1,0.5-0.1c0.8,0,1.7,0.1,2.5,0.2
			c0.8,0.2,1.7,0.3,2.5,0.3c0.1-1,0.1-2,0.2-3.1c0-1,0-2,0-3.1c0-0.2,0-0.4,0-0.8c0-0.4,0-0.8,0-1.3c0-0.5,0-1,0-1.5
			c0-0.5,0-1,0-1.4c0-0.4,0-0.8-0.1-1.1c0-0.3,0-0.5-0.1-0.6l-0.1,0c-0.5,0-1,0-1.4,0.1c-0.5,0.1-1,0.1-1.4,0.2
			c-0.5,0.1-1,0.2-1.4,0.2c-0.5,0.1-1,0.1-1.4,0.1c-0.2,0-0.3,0-0.4-0.1c-0.1-0.1-0.2-0.2-0.2-0.4c0-0.1,0.1-0.3,0.4-0.4
			c0.3-0.1,0.6-0.3,1-0.4c0.4-0.1,0.9-0.2,1.4-0.4c0.5-0.1,1-0.2,1.5-0.3c0.5-0.1,0.9-0.2,1.3-0.2C68.4,18.9,68.7,18.9,68.8,18.9z
			 M63.4,24.7c0-0.3,0.1-0.5,0.3-0.7c0.2-0.2,0.4-0.3,0.7-0.3c0.3,0,0.6,0.1,1,0.2c0.4,0.1,0.8,0.3,1.2,0.5c0.4,0.2,0.7,0.4,1,0.7
			c0.3,0.3,0.4,0.6,0.4,0.9c0,0.1,0,0.3-0.1,0.4c-0.1,0.1-0.1,0.2-0.1,0.3s0,0.2,0.1,0.3c0.1,0.1,0.1,0.2,0.1,0.3
			c0,0.1-0.1,0.3-0.3,0.5c-0.2,0.2-0.5,0.4-0.8,0.7c-0.3,0.3-0.7,0.5-1,0.8c-0.4,0.3-0.7,0.5-1.1,0.7c-0.4,0.2-0.7,0.4-1,0.5
			c-0.3,0.1-0.5,0.2-0.6,0.2c-0.1,0-0.2-0.1-0.4-0.2c-0.2-0.2-0.2-0.3-0.2-0.4c0-0.2,0.2-0.4,0.5-0.7c0.4-0.3,0.8-0.6,1.2-1
			c0.5-0.3,0.9-0.6,1.4-0.9c0.4-0.3,0.8-0.5,0.9-0.6c-0.2-0.1-0.5-0.2-0.9-0.4c-0.4-0.1-0.8-0.3-1.1-0.5c-0.4-0.2-0.7-0.4-1-0.6
			C63.5,25.2,63.4,25,63.4,24.7z M72.4,15.5c0-0.1,0.1-0.2,0.2-0.3c0.1-0.1,0.3-0.2,0.5-0.2c0.2-0.1,0.3-0.1,0.5-0.1
			c0.2,0,0.3,0,0.4,0c0.2,0,0.5,0,0.7,0.1c0.3,0.1,0.5,0.1,0.7,0.3c0.2,0.1,0.4,0.3,0.5,0.5c0.1,0.2,0.2,0.4,0.2,0.7
			c0,0.1,0,0.3-0.1,0.4c-0.1,0.1-0.2,0.3-0.3,0.4c-0.1,0.1-0.3,0.2-0.4,0.3c-0.2,0.1-0.3,0.1-0.4,0.1c-0.2,0-0.4-0.1-0.6-0.2
			c-0.3-0.2-0.5-0.3-0.8-0.5c-0.3-0.2-0.5-0.4-0.7-0.7C72.5,15.9,72.4,15.7,72.4,15.5z"/>
		<path class="st0" d="M100.3,36.9c-0.2,0-0.6,0-1.1,0c-0.5,0-1.1-0.1-1.7-0.1c-0.6-0.1-1.2-0.1-1.9-0.2c-0.7-0.1-1.3-0.2-1.9-0.4
			c-0.6-0.2-1.2-0.4-1.6-0.7c-0.9-0.6-1.1-1.3-1.1-1.7c0-0.3,0-0.6,0.1-0.8c-0.2,0-0.4,0.1-0.6,0.1c-0.2,0-0.6,0-1.2-0.1
			c-0.5,0-1.1-0.1-1.7-0.2c-0.6-0.1-1.3-0.2-2-0.4c-0.7-0.1-1.3-0.3-1.9-0.5c-0.6-0.2-1.2-0.5-1.6-0.7c-0.9-0.6-1.1-1.3-1.1-1.8
			c0-0.5,0.2-1,0.6-1.5c0.1-0.1,0.1-0.2,0.2-0.2c-0.6-0.6-0.8-1.3-0.8-1.7c0-0.5,0.2-1.1,0.5-1.6c0.2-0.4,0.5-0.7,0.8-1.1
			c0.2-0.2,0.3-0.3,0.4-0.5l-0.8-0.8c-0.3-0.4-0.7-0.7-1-1.1c-0.3-0.4-0.7-0.9-0.7-1.5c0-0.5,0.2-1.2,1.2-1.8
			c0.5-0.3,1.1-0.6,1.8-0.8c0.7-0.2,1.4-0.5,2.2-0.7c0.8-0.2,1.5-0.4,2.3-0.5c0.7-0.1,1.4-0.2,2-0.3c0.6-0.1,1.1-0.1,1.4-0.1
			c0.3,0,0.6,0,0.9,0.1c0.3,0.1,0.6,0.1,0.9,0.3c0.2-0.7,0.4-1,0.7-1.3c0.4-0.4,1-0.6,1.6-0.6c0.9,0,1.4,0.4,1.6,0.7
			c0.3,0.4,0.5,0.9,0.5,1.5c0,0.4,0,0.8-0.1,1.2c-0.1,0.3-0.1,0.6-0.2,0.8c0.2,0,0.4-0.1,0.5-0.1c0.8-0.2,1.7-0.3,2.6-0.3
			c1.4,0,2.2,0.6,2.7,1.1c0.5,0.6,0.9,1.3,1.1,2.2c0.2,0.8,0.3,1.6,0.3,2.4V25c0,0.3,0,0.9,0,1.5c0,0.7-0.1,1.4-0.1,2.2
			c-0.1,0.8-0.1,1.7-0.3,2.5c-0.1,0.9-0.3,1.7-0.5,2.5c-0.2,0.8-0.6,1.5-1,2C101.7,36.7,100.9,36.9,100.3,36.9z M93.2,31.6
			c0.4,0,0.9,0,1.4,0.1c0.5,0.1,1,0.1,1.5,0.2c0.5,0.1,1,0.1,1.5,0.2c0.1,0,0.3,0,0.4,0.1c0.5-1.5,0.8-2.9,1-4.4
			c-0.1,0.1-0.2,0.3-0.3,0.4c-0.5,0.5-1.1,0.7-1.8,0.7c-0.5,0-1-0.2-1.5-0.7c-0.3-0.3-0.6-0.6-0.9-1c-0.2-0.4-0.5-0.8-0.6-1.2
			c-0.2-0.5-0.3-0.9-0.3-1.3c0-0.5,0.2-0.9,0.6-1.3c0,0-0.1,0-0.1,0c-0.5,0-1-0.2-1.3-0.5l-0.2-0.2l-0.4-1.2
			c-0.1-0.4-0.2-0.8-0.2-1.3c-0.2,0.1-0.3,0.1-0.5,0.1c-0.6,0.1-1.3,0.2-2.1,0.3c-0.2,0-0.3,0-0.5,0c0.4,0.4,0.7,1,0.7,1.6
			c0,0.7-0.4,1.3-1.1,1.9c-0.5,0.4-0.9,0.7-1.5,1.1c0.2,0,0.4,0,0.6,0c0.7,0,1.4,0.1,2.1,0.1c0.1,0,0.3,0,0.5,0
			c0.3,0,0.5,0.1,0.7,0.1c0.4,0.1,0.7,0.3,0.9,0.5c0.2,0.2,0.5,0.6,0.5,1.3c0,0.7-0.2,1.1-0.5,1.5c0.2,0.1,0.4,0.2,0.5,0.3
			c0.1,0.1,0.3,0.3,0.5,0.5c0.3,0.3,0.4,0.8,0.4,1.3c0,0.4-0.1,0.7-0.2,0.9C93,31.6,93.1,31.6,93.2,31.6z M95.6,22.9
			c0.4,0,0.8,0.1,1.3,0.3c0.4,0.2,0.8,0.4,1.1,0.6c0.4,0.3,0.7,0.6,1,1c0.1,0.2,0.2,0.3,0.3,0.5c0.1-1.3,0.1-2.7,0.2-4
			c-0.1,0-0.2,0-0.3,0c-0.4,0-0.9,0.1-1.4,0.2c-0.5,0.1-0.9,0.1-1.3,0.2c-0.1,0-0.2,0-0.2,0c-0.1,0.2-0.2,0.4-0.3,0.6
			c-0.1,0.2-0.3,0.4-0.5,0.6C95.4,22.9,95.5,22.9,95.6,22.9z"/>
		<path class="st1" d="M81.6,19.3c0-0.3,0.2-0.5,0.6-0.8c0.4-0.3,0.9-0.5,1.6-0.7c0.6-0.2,1.3-0.4,2.1-0.6c0.8-0.2,1.5-0.4,2.2-0.5
			c0.7-0.1,1.3-0.2,1.9-0.3c0.6-0.1,1-0.1,1.2-0.1c0.2,0,0.5,0,0.7,0.1c0.2,0,0.4,0.1,0.6,0.2c0.2,0.1,0.3,0.2,0.4,0.4
			c0.1,0.2,0.2,0.4,0.2,0.7c0,0.4-0.2,0.7-0.6,0.9c-0.4,0.2-0.9,0.4-1.4,0.5c-0.6,0.1-1.2,0.2-1.9,0.3c-0.7,0.1-1.4,0.1-2,0.1
			c-0.6,0-1.2,0.1-1.7,0.2c-0.5,0.1-0.8,0.2-1,0.3c0,0.1,0.1,0.2,0.2,0.3s0.2,0.3,0.4,0.4c0.1,0.1,0.3,0.3,0.4,0.4
			c0.1,0.1,0.2,0.2,0.3,0.3c0.2-0.1,0.4-0.1,0.6-0.2c0.2-0.1,0.4-0.1,0.6-0.1c0.3,0,0.6,0.1,0.8,0.3c0.2,0.2,0.3,0.4,0.3,0.7
			c0,0.3-0.2,0.6-0.6,0.9c-0.4,0.3-0.9,0.7-1.4,1c-0.5,0.3-0.9,0.6-1.4,0.9c-0.4,0.3-0.6,0.6-0.6,0.8c0,0,0,0.1,0.1,0.1
			c0.1,0,0.2,0.1,0.3,0.1c0.1,0,0.2,0,0.4,0.1c0.1,0,0.2,0,0.2,0c0.7,0.1,1.4,0.2,2.1,0.2c0.7,0,1.4,0.1,2.1,0.1c0.1,0,0.3,0,0.4,0
			c0.2,0,0.3,0,0.5,0.1c0.2,0,0.3,0.1,0.4,0.2c0.1,0.1,0.1,0.2,0.1,0.4c0,0.4-0.1,0.6-0.3,0.8c-0.2,0.2-0.5,0.3-0.8,0.3
			c-0.3,0-0.6,0-1.1,0c-0.5,0-1-0.1-1.5-0.1c-0.6-0.1-1.1-0.2-1.7-0.3c-0.6-0.1-1.1-0.3-1.6-0.4c-0.5-0.2-0.9-0.4-1.2-0.6
			c-0.3-0.2-0.5-0.5-0.5-0.9c0-0.3,0.1-0.6,0.3-0.9c0.2-0.3,0.4-0.6,0.7-0.9c0.3-0.3,0.5-0.6,0.7-0.8c0.2-0.2,0.3-0.4,0.3-0.5
			s-0.1-0.3-0.4-0.6c-0.3-0.3-0.6-0.6-0.9-1c-0.3-0.4-0.6-0.7-0.9-1C81.8,19.7,81.6,19.5,81.6,19.3z M82.3,29.3
			c0-0.2,0.1-0.4,0.3-0.7c0.2-0.2,0.4-0.4,0.6-0.4c0.1,0,0.4,0,0.8,0.1c0.4,0.1,0.9,0.2,1.6,0.3c0.6,0.1,1.2,0.2,1.9,0.4
			c0.7,0.1,1.3,0.2,1.9,0.4c0.6,0.1,1.1,0.2,1.4,0.3c0.4,0.1,0.6,0.1,0.6,0.1c0.1,0.1,0.3,0.3,0.4,0.4c0.1,0.1,0.2,0.3,0.2,0.5
			c0,0.4-0.1,0.7-0.4,0.8c-0.3,0.1-0.6,0.2-0.9,0.2c-0.2,0-0.6,0-1.1-0.1c-0.5,0-1-0.1-1.7-0.2c-0.6-0.1-1.2-0.2-1.9-0.4
			c-0.7-0.1-1.3-0.3-1.8-0.5c-0.5-0.2-1-0.4-1.3-0.6C82.5,29.8,82.3,29.6,82.3,29.3z M93.5,22c-0.1-0.3-0.2-0.6-0.3-0.9
			c-0.1-0.3-0.1-0.6-0.1-1c0-0.2,0-0.5,0.1-1c0.1-0.5,0.2-1,0.4-1.6c0.2-0.6,0.3-1.1,0.5-1.6c0.2-0.5,0.3-0.8,0.4-0.8
			c0.2-0.2,0.5-0.3,0.8-0.3c0.3,0,0.5,0.1,0.7,0.3c0.1,0.2,0.2,0.4,0.2,0.7c0,0.3,0,0.6-0.1,0.9c-0.1,0.3-0.2,0.6-0.2,0.9
			c-0.1,0.3-0.2,0.6-0.2,0.9c-0.1,0.3-0.1,0.6-0.1,0.9c0.8-0.2,1.6-0.4,2.3-0.5c0.8-0.2,1.6-0.2,2.4-0.2c0.8,0,1.4,0.2,1.8,0.7
			c0.4,0.5,0.7,1,0.8,1.7c0.2,0.7,0.2,1.4,0.2,2.1c0,0.7,0,1.4,0,1.9c0,0.3,0,0.8,0,1.5s-0.1,1.4-0.1,2.2c-0.1,0.8-0.1,1.6-0.3,2.4
			c-0.1,0.8-0.3,1.6-0.5,2.3c-0.2,0.7-0.5,1.2-0.8,1.7c-0.3,0.4-0.7,0.6-1.1,0.6c-0.2,0-0.6,0-1.1,0c-0.5,0-1-0.1-1.6-0.1
			c-0.6-0.1-1.2-0.1-1.8-0.2c-0.6-0.1-1.2-0.2-1.7-0.3c-0.5-0.1-0.9-0.3-1.3-0.5c-0.3-0.2-0.5-0.4-0.5-0.7c0-0.6,0.3-0.9,0.9-0.9
			c0.4,0,0.8,0,1.3,0.1c0.5,0.1,1,0.1,1.5,0.2c0.5,0.1,1,0.1,1.5,0.2c0.5,0.1,1,0.1,1.4,0.2c0.8-2,1.3-4.1,1.5-6.1
			c0.2-2.1,0.3-4.2,0.3-6.3c0-0.3,0-0.5-0.1-0.7S100.3,20,100,20c-0.2,0-0.5,0-0.9,0.1c-0.5,0-0.9,0.1-1.4,0.2
			c-0.5,0.1-1,0.1-1.4,0.2c-0.4,0.1-0.7,0.1-0.9,0.2c-0.1,0.1-0.1,0.3-0.2,0.5c-0.1,0.2-0.2,0.4-0.3,0.5c-0.1,0.2-0.2,0.3-0.4,0.4
			c-0.1,0.1-0.3,0.2-0.4,0.2C93.8,22.2,93.7,22.1,93.5,22z M94.8,24.7c0-0.2,0.1-0.4,0.3-0.5c0.2-0.1,0.4-0.2,0.5-0.2
			c0.2,0,0.5,0.1,0.8,0.2s0.6,0.3,0.9,0.5c0.3,0.2,0.5,0.4,0.7,0.7c0.2,0.3,0.3,0.5,0.3,0.8c0,0.4-0.1,0.7-0.4,1
			c-0.3,0.2-0.6,0.4-1,0.4c-0.2,0-0.4-0.1-0.7-0.3c-0.2-0.2-0.5-0.5-0.7-0.8c-0.2-0.3-0.4-0.6-0.5-1C94.9,25.2,94.8,24.9,94.8,24.7z
			"/>
		<path class="st0" d="M124,33.9c-1.2,0-2.1-0.7-2.4-1.9c0-0.1-0.1-0.2-0.1-0.3c0,0,0,0,0,0.1c-0.1,0.4-0.3,0.8-0.5,1.1
			c-0.3,0.3-0.7,0.6-1.2,0.7c-0.3,0.1-0.8,0.1-1.3,0.1c-0.3,0-0.6,0-1.1,0c-0.5,0-1-0.1-1.5-0.2c-0.6-0.1-1.1-0.3-1.5-0.6
			c-0.7-0.4-1.1-1.1-1.1-1.9c0-0.1,0-0.1,0-0.2h-0.4c-0.8,0-1.1,0.1-1.3,0.1c-0.4,0.1-0.5,0.2-0.6,0.3c-0.2,0.1-0.3,0.2-0.4,0.3
			c-0.4,0.4-0.9,0.6-1.4,0.6c-0.4,0-0.9-0.1-1.2-0.4c-0.3-0.2-0.6-0.5-0.8-0.8c-0.2-0.3-0.3-0.7-0.4-1.4c-0.1-0.5-0.1-1.1-0.2-1.8
			c0-0.7-0.1-1.4-0.1-2.2l-0.1-4.1c0-0.5,0-0.9-0.1-1.2l0-0.5l0.3-0.4c0.2-0.2,0.4-0.4,0.6-0.6c0.4-0.4,0.9-0.6,1.5-0.6
			c0.4,0,0.8,0.1,1.2,0.3l0.7-0.3c0.3-0.1,0.6-0.2,0.9-0.3c0.4-0.1,0.8-0.2,1.2-0.2c0.7,0,1.2,0.2,1.7,0.5c0.4,0.3,0.7,0.7,0.9,1.1
			c0.1,0.2,0.2,0.5,0.3,0.8c0.1,0,0.3-0.1,0.4-0.1c0.3-0.1,0.6-0.2,0.9-0.3c0-0.2,0-0.4,0-0.6c0-0.3,0.1-0.6,0.2-0.9
			c0.1-0.4,0.3-0.7,0.6-1c0.3-0.3,0.7-0.6,1.5-0.6c0.6,0,1.2,0.3,1.6,0.8c0.2,0.3,0.4,0.7,0.5,1.1c0,0.2,0.1,0.3,0.1,0.5
			c0.4,0,0.8,0.2,1.2,0.4c0.4,0.3,0.6,0.7,0.7,1.2c0,0,0.4,0,0.5-0.1c0-0.2,0.1-0.4,0.1-0.7c0.1-0.4,0.2-0.9,0.4-1.4
			c0.2-0.5,0.3-1,0.5-1.4c0.2-0.6,0.4-0.9,0.6-1.1c0.4-0.5,1-0.7,1.7-0.7c0.7,0,1.3,0.3,1.7,0.8c0.3,0.4,0.5,0.9,0.5,1.4
			c0,0.4-0.1,0.8-0.2,1.2c-0.1,0.3-0.2,0.5-0.3,0.8c0.9,0,1.8,0.1,2.5,0.3c0.9,0.3,1.6,0.9,2.3,1.9l0.2,0.2l0,0.3
			c0,0.3,0.1,0.6,0.2,0.9c0.1,0.4,0.2,0.9,0.2,1.3c0,0.2,0,0.6,0,1.1c0,0.5,0,1.1-0.1,1.7c0,0.6-0.1,1.3-0.2,2
			c-0.1,0.7-0.2,1.4-0.4,2c-0.2,0.7-0.4,1.2-0.7,1.6c-0.4,0.7-1.1,1.1-1.8,1.1c-0.4,0-0.7-0.1-1-0.3c-0.1-0.1-0.3-0.2-0.4-0.3
			c0,0-0.1,0-0.1-0.1c-0.2,0-0.5,0-0.8,0c-0.5,0-0.9,0.1-1.5,0.1c-0.5,0.1-1,0.1-1.4,0.2c-0.3,0-0.4,0.1-0.6,0.1
			c-0.1,0.1-0.2,0.1-0.3,0.1C124.5,33.9,124.2,33.9,124,33.9z M115.8,24.7c0,0.2,0,0.6,0,1.1c0,0.3,0,0.6,0,0.8
			c0.3-0.2,0.7-0.4,1-0.5c0.1,0,0.1,0,0.1-0.1V24c-0.1,0-0.1,0-0.2,0.1c-0.3,0.1-0.6,0.2-0.9,0.2V24.7z M111.2,21.9
			c0,1.1,0,2.2,0.1,3.3c0,0.5,0.1,1,0.1,1.4c0.2-1.6,0.3-3.2,0.3-4.7c0-0.1,0-0.1,0-0.2C111.7,21.7,111.4,21.8,111.2,21.9
			L111.2,21.9z M125.8,23.7c0,0.5,0.1,1,0.1,1.4l0.1,1.2c0.1,0,0.2,0,0.2,0l1.3-0.3c0.6-0.1,1.1-0.2,1.7-0.3c0.2,0,0.5-0.1,0.7-0.1
			c0-0.3,0-0.6,0.1-0.9c0-0.6,0-1.2,0.1-1.8c0,0-0.1,0-0.2,0c-0.8,0-1.6,0.1-2.4,0.3C126.9,23.4,126.3,23.6,125.8,23.7z"/>
		<path class="st1" d="M109.7,19.8c0.1,0,0.3,0,0.5-0.1c0.2-0.1,0.5-0.2,0.7-0.3c0.3-0.1,0.5-0.2,0.8-0.3c0.3-0.1,0.6-0.1,0.8-0.1
			c0.4,0,0.7,0.1,0.9,0.3c0.2,0.2,0.4,0.4,0.5,0.7c0.1,0.3,0.2,0.6,0.3,0.9c0,0.3,0.1,0.6,0.1,0.9c0.6-0.2,1.2-0.3,1.8-0.5
			c0.6-0.2,1.2-0.4,1.8-0.5c0-0.1-0.1-0.2-0.1-0.4c0-0.1,0-0.2,0-0.3c0-0.2,0-0.4,0-0.6c0-0.2,0.1-0.5,0.1-0.7
			c0.1-0.2,0.2-0.4,0.3-0.6c0.1-0.2,0.3-0.2,0.6-0.2c0.3,0,0.4,0.1,0.6,0.3c0.1,0.2,0.3,0.4,0.3,0.7c0.1,0.3,0.1,0.5,0.1,0.8
			c0,0.3,0,0.5,0,0.7c0.4-0.1,0.7-0.1,1-0.1c0.2,0,0.4,0.1,0.5,0.2c0.1,0.1,0.2,0.3,0.2,0.5c0,0.1-0.1,0.3-0.2,0.4
			c-0.1,0.1-0.3,0.2-0.5,0.3c-0.2,0.1-0.4,0.1-0.6,0.2c-0.2,0-0.3,0.1-0.4,0.1c0,0.2,0,0.5,0,0.9c0,0.4,0,0.9,0,1.4
			c0,0.5,0,1,0.1,1.4s0.1,0.8,0.2,0.9c0,0.1,0.1,0.2,0.1,0.3c0,0.1,0.1,0.2,0.1,0.3c0,0.1,0,0.2,0,0.2c0,0-0.1,0.1-0.1,0.1
			c-0.1,0.1-0.2,0.3-0.2,0.6c0,0.3-0.1,0.6-0.1,1c0,0.4,0,0.7,0,1c0,0.3,0,0.6,0,0.7c0,0.4,0,0.7-0.1,0.9s-0.1,0.4-0.3,0.6
			c-0.1,0.2-0.3,0.3-0.5,0.3c-0.2,0.1-0.5,0.1-0.9,0.1c-0.2,0-0.6,0-1,0c-0.4,0-0.9-0.1-1.3-0.2c-0.4-0.1-0.8-0.2-1.2-0.4
			c-0.3-0.2-0.5-0.5-0.5-0.8c0-0.2,0-0.4,0.1-0.5c0.1-0.1,0.2-0.2,0.4-0.2c0.3,0,0.5,0,0.8,0.1c0.3,0.1,0.5,0.1,0.8,0.2
			c0.3,0.1,0.5,0.1,0.8,0.2c0.3,0.1,0.5,0.1,0.8,0.1v-1.1c0-0.3,0-0.5,0-0.8c0-0.3,0-0.5-0.1-0.8c-0.1,0.1-0.4,0.2-0.7,0.3
			c-0.3,0.1-0.6,0.3-1,0.4c-0.3,0.2-0.6,0.3-0.9,0.4c-0.3,0.1-0.5,0.2-0.6,0.2c-0.3,0-0.4-0.1-0.4-0.4c0-0.2,0.2-0.4,0.5-0.6
			c0.3-0.2,0.7-0.5,1.1-0.7c0.4-0.2,0.8-0.5,1.2-0.6c0.4-0.2,0.7-0.3,0.8-0.4v-4.6c-0.6,0.2-1.2,0.4-1.8,0.6
			c-0.6,0.2-1.2,0.3-1.8,0.3c0,0.3,0.1,0.5,0.1,0.8c0,0.3,0,0.5,0,0.8c0,0.2,0,0.6,0,1.1c0,0.5-0.1,1.1-0.1,1.6
			c-0.1,0.6-0.2,1.1-0.4,1.5c-0.2,0.4-0.4,0.6-0.7,0.6h-0.6c-0.7,0-1.3,0.1-1.7,0.2c-0.4,0.1-0.7,0.3-0.9,0.5
			c-0.2,0.2-0.4,0.3-0.5,0.5c-0.1,0.1-0.3,0.2-0.5,0.2c-0.2,0-0.4-0.1-0.6-0.2s-0.3-0.3-0.4-0.4c-0.1-0.1-0.1-0.4-0.2-0.9
			c-0.1-0.5-0.1-1-0.2-1.7c0-0.7-0.1-1.4-0.1-2.1c0-0.8-0.1-1.5-0.1-2.2c0-0.7,0-1.3-0.1-1.9c0-0.6,0-1-0.1-1.2
			c0.2-0.2,0.3-0.4,0.5-0.6c0.2-0.2,0.4-0.3,0.7-0.3c0.2,0,0.4,0.1,0.6,0.2C109.4,19.7,109.5,19.8,109.7,19.8z M113,21.9
			c0-0.1,0-0.3,0-0.4c0-0.2,0-0.4-0.1-0.5c0-0.2-0.1-0.3-0.2-0.5c-0.1-0.1-0.2-0.2-0.4-0.2c-0.1,0-0.3,0-0.5,0.1
			c-0.2,0.1-0.4,0.1-0.6,0.2c-0.2,0.1-0.4,0.2-0.6,0.2c-0.2,0.1-0.4,0.1-0.5,0.2v0.9c0,1.1,0,2.3,0.1,3.4c0.1,1.1,0.1,2.2,0.1,3.4
			l2.1-0.5C112.8,26,113,23.9,113,21.9z M132.4,22.3c0.1,0.3,0.1,0.7,0.2,1c0.1,0.3,0.1,0.7,0.1,1c0,0.2,0,0.6,0,1.1
			c0,0.5,0,1.1-0.1,1.7c0,0.6-0.1,1.2-0.2,1.9c-0.1,0.6-0.2,1.2-0.3,1.8c-0.1,0.5-0.3,1-0.5,1.3c-0.2,0.3-0.5,0.5-0.8,0.5
			c-0.1,0-0.3,0-0.4-0.1c-0.1-0.1-0.2-0.1-0.3-0.2c-0.1-0.1-0.2-0.2-0.3-0.2c-0.1-0.1-0.3-0.1-0.4-0.1c-0.2,0-0.5,0-1,0.1
			c-0.5,0-1,0.1-1.5,0.1c-0.5,0.1-1,0.1-1.4,0.2c-0.4,0.1-0.7,0.1-0.8,0.2c-0.1,0.1-0.2,0.1-0.3,0.1c-0.1,0-0.2,0.1-0.4,0.1
			c-0.7,0-1.1-0.3-1.3-1c-0.3-1.3-0.5-2.6-0.6-4c0-1.4-0.1-2.7-0.1-4.1c0-0.5,0.1-0.8,0.2-1.1c0.1-0.2,0.3-0.4,0.5-0.5
			c0.2-0.1,0.4-0.2,0.7-0.2c0.2,0,0.5-0.1,0.7-0.1c0.2,0,0.4-0.1,0.5-0.2c0.1-0.1,0.2-0.3,0.2-0.5c0-0.1,0-0.4,0.1-0.8
			c0.1-0.4,0.2-0.9,0.4-1.3c0.1-0.5,0.3-0.9,0.4-1.3c0.2-0.4,0.3-0.6,0.4-0.7c0.2-0.2,0.5-0.4,0.8-0.4c0.3,0,0.5,0.1,0.7,0.3
			c0.1,0.2,0.2,0.4,0.2,0.7c0,0.3,0,0.5-0.1,0.8c-0.1,0.3-0.2,0.6-0.3,0.8c-0.1,0.3-0.2,0.6-0.3,0.8c-0.1,0.3-0.2,0.5-0.3,0.8l0.2,0
			c0.3,0,0.5,0,0.8-0.1c0.3,0,0.5-0.1,0.8-0.1c0.8,0,1.5,0.1,2.1,0.3C131.4,21.1,131.9,21.6,132.4,22.3z M131.2,22.8
			c0-0.5-0.1-0.8-0.4-0.9c-0.2-0.1-0.6-0.2-1-0.2c-0.9,0-1.8,0.1-2.7,0.3c-0.9,0.2-1.7,0.5-2.6,0.8c0,0.8,0.1,1.6,0.1,2.4
			c0.1,0.8,0.1,1.6,0.2,2.4l0.2,0c0.5,0,1,0,1.4-0.1c0.5-0.1,0.9-0.2,1.4-0.3c0.5-0.1,1-0.2,1.5-0.3c0.5-0.1,1.1-0.1,1.7,0
			c0.1-0.7,0.1-1.4,0.2-2.1C131.1,24.2,131.2,23.5,131.2,22.8z M130.1,30c0.2-0.3,0.3-0.7,0.4-1.1c0.1-0.4,0.1-0.7,0.2-1.1l-0.1-0.1
			l-0.1,0.1c-0.9,0.2-1.9,0.3-2.8,0.4c-0.9,0.1-1.9,0.3-2.8,0.6c0.1,0.3,0.1,0.7,0.1,1c0,0.3,0.1,0.7,0.2,1l0.2,0
			c0.8,0,1.5-0.1,2.4-0.3C128.6,30.3,129.4,30.1,130.1,30z"/>
	</g>
	<g id="qr4tm8.tif_1_">
		<g>
			<g>
				<path class="st0" d="M15.2,26.5L15.2,26.5L5.1,19.2c-0.6-0.4-1.1-0.8-1.7-1.2c-1.3-1-2.3-2.3-2.9-3.8c-0.1-0.2-0.2-0.5-0.2-0.7
					l-0.1-0.4L0,12l0-0.1l0-0.5c0-0.3,0-0.7,0-1c0.4-4.5,4.1-7.8,8.6-7.8c1.3,0,2.6,0.3,3.8,0.9c1.7-1.7,3.7-2.6,6-2.6
					c0.7,0,1.5,0.1,2.3,0.3c3.9,0.9,6.7,4.6,6.5,8.7c-0.1,1.7-0.7,3.4-1.8,4.9c-2,2.8-4,5.6-6,8.4l-2.2,3l-0.3,0.5l-1.1,0.2
					L15.2,26.5z"/>
				<path class="st2" d="M1.4,12.8c-0.1-0.3-0.1-0.6-0.2-0.9c0-0.1,0-0.1,0-0.2c0-0.4,0-0.9,0-1.3C1.8,5,7.8,2,12.5,4.8
					c0.1,0,0.1,0.1,0.2,0.1c0-0.1,0.1-0.1,0.1-0.1c2-2.4,4.6-3.3,7.7-2.6c3.4,0.8,5.7,4,5.5,7.5c-0.1,1.6-0.6,3-1.5,4.2
					c-2.7,3.8-5.5,7.6-8.2,11.5c0,0.1-0.1,0.1-0.1,0.2c0,0-0.1,0-0.1,0c-0.1,0-0.1-0.1-0.2-0.1c-3.2-2.3-6.3-4.5-9.5-6.8
					c-0.8-0.5-1.5-1.1-2.3-1.6c-1.1-0.9-1.9-1.9-2.4-3.3C1.6,13.4,1.5,13.1,1.4,12.8z"/>
			</g>
		</g>
	</g>
</g>
</svg>
